<?xml version="1.0" encoding="UTF-8" standalone="no"?>
<svg
   xmlns:dc="http://purl.org/dc/elements/1.1/"
   xmlns:cc="http://creativecommons.org/ns#"
   xmlns:rdf="http://www.w3.org/1999/02/22-rdf-syntax-ns#"
   xmlns:svg="http://www.w3.org/2000/svg"
   xmlns="http://www.w3.org/2000/svg"
   xmlns:sodipodi="http://sodipodi.sourceforge.net/DTD/sodipodi-0.dtd"
   xmlns:inkscape="http://www.inkscape.org/namespaces/inkscape"
   version="1.0"
   width="300.000000pt"
   height="230.000000pt"
   viewBox="0 0 300.000000 230.000000"
   preserveAspectRatio="xMidYMid meet"
   id="svg20"
   sodipodi:docname="ruLuda796F.svg"
   inkscape:version="0.92.3 (2405546, 2018-03-11)">
  <defs
     id="defs24" />
  <sodipodi:namedview
     pagecolor="#ffffff"
     bordercolor="#666666"
     borderopacity="1"
     objecttolerance="10"
     gridtolerance="10"
     guidetolerance="10"
     inkscape:pageopacity="0"
     inkscape:pageshadow="2"
     inkscape:window-width="1366"
     inkscape:window-height="715"
     id="namedview22"
     showgrid="false"
     inkscape:zoom="1.0606602"
     inkscape:cx="203.90024"
     inkscape:cy="192.61092"
     inkscape:window-x="-8"
     inkscape:window-y="-8"
     inkscape:window-maximized="1"
     inkscape:current-layer="svg20" />
  <metadata
     id="metadata2">
Created by potrace 1.10, written by Peter Selinger 2001-2011
<rdf:RDF>
  <cc:Work
     rdf:about="">
    <dc:format>image/svg+xml</dc:format>
    <dc:type
       rdf:resource="http://purl.org/dc/dcmitype/StillImage" />
  </cc:Work>
</rdf:RDF>
</metadata>
  <path
     style="fill:#daa520;stroke:none;stroke-width:0.05"
     inkscape:connector-curvature="0"
     id="path4"
     d="m 250.48007,10.908873 c -2.84092,4.010709 -70.93942,18.131747 -73.78034,15.290828 -3.17514,-3.175145 -8.85698,-1.838242 -13.36903,3.258701 -2.42313,2.757362 -5.76539,5.013386 -7.35296,5.096942 -1.58757,0 -14.70593,3.258701 -29.07764,7.185854 -22.30957,6.099619 -26.57095,6.851627 -29.161203,4.929829 -1.67113,-1.16979 -4.26138,-1.754685 -5.76539,-1.336903 -3.76004,1.253347 -41.360436,-7.102297 -45.621814,-10.110328 -9.943216,-6.935184 -18.465973,4.261378 -10.444555,13.786812 3.927153,4.67916 33.589689,97.009012 32.837679,102.440182 -0.16711,1.3369 -0.25067,5.43117 -0.25067,8.94054 0.16711,8.35564 -7.770748,39.52219 -10.862336,43.03156 -5.096942,5.59829 -0.501338,14.87305 7.352966,14.87305 4.34494,0 9.35832,-7.01874 8.10497,-11.19656 -1.50401,-4.84628 34.843043,-26.48739 40.274213,-23.9807 4.26137,1.9218 9.27476,0.25067 11.61434,-3.92715 2.59025,-4.59561 29.1612,2.17247 30.99944,7.8543 1.50401,4.42849 7.68719,7.52008 11.113,5.51473 2.84092,-1.83824 60.82909,25.15048 62.24955,28.91052 1.83824,4.84628 9.10765,6.35029 13.20191,2.59025 3.59293,-3.17514 4.26138,-9.10765 1.50402,-11.86501 -1.75468,-1.75469 0.0836,-31.08299 2.59025,-40.8591 0.75201,-2.92447 0.25067,-5.1805 -1.58757,-7.01874 -3.50937,-3.50937 -10.94589,-20.30421 -10.94589,-24.7327 0,-1.83824 -0.75201,-4.76272 -1.67113,-6.43385 -1.75469,-3.42581 2.33958,-40.190638 5.09694,-45.371137 0.91912,-1.671128 1.58757,-4.929829 1.58757,-7.352966 0,-6.016063 19.63576,-53.392562 23.56292,-56.985489 4.0107,-3.592926 4.09426,-9.358321 0.0836,-12.951247 -4.01071,-3.6764834 -9.60899,-3.5093706 -12.28279,0.417782 z m -1.33691,8.940539 c 0,3.175144 -20.80555,53.309005 -22.22601,53.643231 -2.33958,0.501339 -47.62717,-38.018178 -46.87516,-39.939976 0.5849,-1.420459 41.77822,-10.862337 67.84783,-15.541497 0.66845,-0.167113 1.25334,0.668452 1.25334,1.838242 z M 151.29858,66.30679 137.92955,93.044849 121.05115,74.244651 c -9.35832,-10.360998 -16.96196,-19.635762 -16.8784,-20.554883 0,-0.919121 10.61167,-4.512048 23.64647,-7.937861 12.95125,-3.425814 25.81894,-6.851628 28.5763,-7.687192 9.35832,-2.757363 8.77343,0.501338 -5.09694,28.242075 z m 52.13921,-5.514725 c 12.2828,10.110328 19.80288,17.463295 19.05087,18.633085 -1.3369,2.256024 -78.20882,17.881077 -79.79639,16.293505 -0.5849,-0.668452 4.84627,-12.700578 12.11568,-26.821616 13.95392,-26.988728 18.88375,-32.085671 25.81894,-26.821616 1.42046,1.086234 11.61434,9.441878 22.8109,18.716642 z M 68.159927,53.021316 c 23.47935,5.096943 22.56023,2.423137 15.54149,45.788927 -3.17514,19.719317 -6.18317,35.929257 -6.68451,35.929257 -0.41778,0 -6.35029,-18.29885 -13.20192,-40.524861 C 57.046916,71.905071 51.197966,52.770647 50.780184,51.600857 49.777506,48.927051 48.941942,48.843495 68.159927,53.021316 Z m 43.616453,27.406511 c 20.30422,22.226013 20.722,19.969983 -8.27208,47.543603 l -23.646473,22.56024 0.91912,-8.35564 c 0.50134,-4.51205 3.59292,-24.06426 6.93518,-43.365787 3.34226,-19.301537 6.01606,-35.344372 6.01606,-35.678598 0,-1.754685 4.4285,2.423137 18.048193,17.296182 z m 110.54517,28.492743 c -2.75736,25.15048 -1.08624,24.06425 -24.31492,14.45526 -10.9459,-4.5956 -27.2394,-11.19656 -36.17994,-14.70593 -8.94054,-3.50937 -16.29351,-6.76807 -16.29351,-7.26941 0.0836,-2.506691 76.03636,-16.042833 77.45682,-13.78681 0.83556,1.336903 0.50134,10.528111 -0.66845,21.30689 z m -60.07708,4.17782 c 6.93519,2.92447 21.55756,8.94054 32.58701,13.36903 18.2153,7.26941 20.1371,8.4392 21.30689,13.0348 0.66845,2.75736 2.67381,5.51473 4.42849,6.01606 2.84092,0.91913 10.19389,15.37439 10.19389,20.13711 0,1.16979 -2.84092,2.59025 -6.26674,3.17514 -3.42581,0.5849 -16.71128,3.09159 -29.41186,5.43117 -28.24208,5.34761 -24.7327,8.27209 -37.93462,-32.00212 -5.68184,-17.46329 -10.77878,-32.83767 -11.28012,-34.09102 -0.5849,-1.58757 -0.0836,-2.08891 1.50402,-1.42046 1.25334,0.5849 8.02141,3.42581 14.87304,6.35029 z m -37.43328,24.81626 c -8.35565,32.16923 -9.10765,33.08835 -23.47936,26.32028 -4.595603,-2.17247 -10.026773,-4.42849 -12.032133,-5.09695 -7.01874,-2.17246 -5.9325,-7.26941 3.34226,-15.70861 4.76272,-4.26137 14.956603,-14.03748 22.810913,-21.55756 7.77075,-7.52008 14.70593,-13.20191 15.29082,-12.53346 0.66846,0.66845 -2.00535,13.53614 -5.9325,28.5763 z m 12.36635,-22.81091 c 0,1.16979 4.42849,15.62506 9.85966,32.16923 5.43117,16.54417 9.60899,30.33099 9.27476,30.74877 -0.33422,0.33422 -7.26941,-0.66845 -15.45794,-2.25603 -20.47132,-4.0107 -20.30421,-3.59292 -12.95124,-33.58968 3.2587,-13.28548 5.9325,-25.3176 5.9325,-26.65451 0,-1.42045 0.75201,-2.50669 1.67113,-2.50669 0.91912,0 1.67113,0.91912 1.67113,2.08891 z m -40.691983,51.2201 c 10.110333,4.34493 17.212623,11.86501 11.113003,11.86501 -0.75201,0 -8.940543,4.84627 -18.048193,10.77878 -9.19121,5.84895 -16.8784,10.52811 -17.21262,10.19389 -1.00268,-1.00268 6.85162,-30.24743 9.10765,-33.92392 2.84092,-4.5956 1.3369,-4.67916 15.04016,1.08624 z m 135.027203,8.94054 c 1.16979,3.92715 1.16979,29.9132 0,31.08299 -0.33423,0.41778 -13.20192,-4.84627 -28.57631,-11.61434 -27.90784,-12.36636 -27.90784,-12.36636 -21.30689,-13.70326 9.35832,-1.83824 46.45738,-9.10765 47.71073,-9.35832 0.58489,-0.0836 1.50401,1.50401 2.17247,3.59293 z" />
</svg>
