<?xml version="1.0" encoding="UTF-8"?>
<svg xmlns="http://www.w3.org/2000/svg" width="674" height="137" viewBox="0 0 674 137" fill="none">
  <path d="M277.215 31.2499H264.095V84.14C264.095 84.6525 264.095 85.8825 262.967 85.8825C262.045 85.8825 261.84 84.8575 261.327 84.14L230.885 36.0674C228.937 32.8899 225.965 30.4299 219.507 30.4299C212.64 30.4299 208.54 34.0174 208.54 40.1674V103H221.66V50.315C221.66 48.7775 222.582 48.265 223.095 48.265C223.402 48.265 223.607 48.47 224.735 50.0075L254.972 97.7725C258.15 102.795 262.147 103.82 266.555 103.82C272.397 103.82 277.215 100.95 277.215 93.6725V31.2499ZM347.021 92.2375H308.174C304.074 92.2375 303.049 91.2125 303.049 87.1125V71.7375H345.586V60.975H303.049V47.1375C303.049 43.0375 304.074 42.0125 308.174 42.0125H346.611V31.2499H299.974C293.824 31.2499 289.519 33.8124 289.519 42.0125V92.2375C289.519 100.437 293.824 103 299.974 103H347.021V92.2375ZM387.444 93.0575C375.144 93.0575 369.814 88.24 369.814 76.965V31.2499H356.284V76.965C356.284 97.465 367.969 103.82 387.444 103.82C406.919 103.82 418.604 97.465 418.604 76.965V31.2499H405.074V76.965C405.074 88.24 399.744 93.0575 387.444 93.0575ZM444.387 103V47.1375C444.387 43.0375 445.412 42.0125 449.512 42.0125H471.344C479.954 42.0125 481.492 45.7025 481.492 53.9025C481.492 62.1025 480.364 67.125 472.882 67.125H458.942C454.944 67.125 452.894 69.175 452.894 72.045V73.685C452.894 75.735 454.739 78.0925 456.277 79.7325L479.442 103H496.867L471.652 78.4V77.8875H478.827C490.819 77.8875 495.432 68.6625 495.432 53.9025C495.432 39.5525 490.819 31.2499 477.494 31.2499H441.312C435.162 31.2499 430.857 33.8124 430.857 42.0125V103H444.387ZM540.878 30.4299C514.33 30.4299 504.08 38.1175 504.08 67.125C504.08 96.1325 514.33 103.82 540.878 103.82C567.63 103.82 577.778 96.1325 577.778 67.125C577.778 38.1175 567.63 30.4299 540.878 30.4299ZM518.02 67.125C518.02 46.625 523.248 41.1924 540.878 41.1924C558.508 41.1924 563.838 46.625 563.838 67.125C563.838 87.625 558.508 93.0575 540.878 93.0575C523.248 93.0575 518.02 87.625 518.02 67.125ZM656.685 31.2499H643.565V84.14C643.565 84.6525 643.565 85.8825 642.438 85.8825C641.515 85.8825 641.31 84.8575 640.798 84.14L610.355 36.0674C608.408 32.8899 605.435 30.4299 598.978 30.4299C592.11 30.4299 588.01 34.0174 588.01 40.1674V103H601.13V50.315C601.13 48.7775 602.053 48.265 602.565 48.265C602.873 48.265 603.078 48.47 604.205 50.0075L634.443 97.7725C637.62 102.795 641.618 103.82 646.025 103.82C651.868 103.82 656.685 100.95 656.685 93.6725V31.2499Z" fill="white"></path>
  <path d="M20 98C20 98 20.2198 49.3823 48.3022 41.9912C87.9768 31.5491 90.8785 107.282 130.685 97.0458C163.923 88.4983 164 41 164 41" stroke="white" stroke-width="16" stroke-linecap="square"></path>
</svg>
